<svg version="1.1" id="Layer_1" xmlns="http://www.w3.org/2000/svg" xmlns:xlink="http://www.w3.org/1999/xlink" x="0px" y="0px"
	 viewBox="0 0 221.4 221.9" style="enable-background:new 0 0 221.4 221.9;" xml:space="preserve">
<style type="text/css">
	.st0{fill-rule:evenodd;clip-rule:evenodd;fill:#050502;}
	.st1{fill-rule:evenodd;clip-rule:evenodd;fill:#FCDB01;}
	.st2{fill-rule:evenodd;clip-rule:evenodd;fill:#F8DA01;}
	.st3{fill-rule:evenodd;clip-rule:evenodd;fill:#FBDB01;}
</style>
<g>
	<path class="st0" d="M96.3,121.8c-7.8,0-15-0.1-22.3,0.1c-3,0.1-4.6-1.2-5.6-3.8c-1.1-3-2.4-6-3.6-9c-1.2-3-0.9-4.6,1.4-6.9
		c14.7-14.6,29.4-29.1,44.2-43.6c8.7-8.6,17.5-17.2,26.2-25.8c1.5-1.4,3-2.3,4.8-1c1.8,1.2,1.6,2.9,0.9,4.7
		c-5.8,14.8-11.5,29.6-17.4,44.4c-0.6,1.5-0.5,2.1,1.1,2.8c11.5,4.9,23,9.9,34.5,14.8c4.4,1.9,4.5,2.3,3.5,7
		c-1.3,5.5-2.5,11-3.7,16.5c-0.5,2.1-1.5,3.7-3.3,4.9c-31.3,20.9-62.6,41.8-93.9,62.7c-2.3,1.5-3.9,1.6-5.1,0.2
		c-1.5-1.7-1.1-3.4,0-5.2c12.3-20,24.5-40,36.7-60C95.1,123.9,95.5,123.2,96.3,121.8z M156.6,107.2c-0.7,0-1,0.6-1.4,0.9
		C139.6,121,124.1,134,108.5,147c-7.5,6.2-14.9,12.5-22.4,18.8c-0.2,0.1-0.5,0.2-0.7,0.3c0.3,0.5,0.7,0.3,1,0
		c22.1-14.7,44.1-29.4,66.2-44.2c0.5-0.4,1.2-0.7,1.3-1.4C154.8,116.1,156.1,111.8,156.6,107.2c0.2,0,0.2-0.1,0.3-0.1
		c-0.1,0-0.1-0.1-0.1-0.1C156.7,107,156.7,107.1,156.6,107.2z M130.1,48.1c-0.5,0.5-1,1.1-1.5,1.6c-18,17.8-36,35.6-54.1,53.4
		c-0.6,0.6-1.3,1-2,1.5c0.2,0.2,0.3,0.4,0.5,0.6c0.7,0,1.4,0,2.2,0c11.4,0.1,22.8,0.2,34.1,0.3c1.1,0,2.2-0.3,2.9,1
		c0.6,1.2-0.2,2.1-0.7,3c-2.5,4.1-5,8.3-7.5,12.4c-9.6,15.7-19.2,31.4-28.8,47.1c-0.3,0.5-0.6,1.1-0.9,1.6c0.1,0.1,0.3,0.2,0.4,0.3
		c26.9-22.4,53.8-44.8,80.9-67.3c-11.8-5.1-23.4-10.1-34.9-15.1c-3.6-1.6-4.4-3.4-3-7.1c4-10.2,8-20.5,12-30.7
		C129.9,49.8,130.7,49,130.1,48.1c0.1,0,0.1,0.1,0.2,0.2c0.1-0.1,0.1-0.1,0.2-0.2C130.4,48,130.3,48.1,130.1,48.1z M108.1,108.7
		c-12.4,0-24.3,0-36.4,0c0.8,1.9,1.5,3.7,2.2,5.4c0.3,0.8,0.7,1.2,1.6,1.2c9,0.2,18,0.4,27,0.7c0.8,0,1.4-0.2,1.8-0.9
		C105.4,113,106.7,111,108.1,108.7z"/>
	<path class="st1" d="M130.1,48c0.6,1-0.2,1.8-0.5,2.6c-4,10.2-8,20.5-12,30.7c-1.4,3.7-0.7,5.5,3,7.1c11.6,5,23.1,10,34.9,15.1
		c-27.1,22.5-54,44.9-80.9,67.3c-0.1-0.1-0.3-0.2-0.4-0.3c0.3-0.5,0.6-1.1,0.9-1.6c9.6-15.7,19.2-31.4,28.8-47.1
		c2.5-4.1,5-8.3,7.5-12.4c0.6-0.9,1.3-1.8,0.7-3c-0.6-1.3-1.8-1-2.9-1c-11.4-0.1-22.8-0.2-34.1-0.3c-0.7,0-1.4,0-2.2,0
		c-0.2-0.2-0.3-0.4-0.5-0.6c0.7-0.5,1.4-0.9,2-1.5c18-17.8,36-35.6,54.1-53.4C129.2,49.2,129.6,48.6,130.1,48L130.1,48z"/>
	<path class="st2" d="M86.1,165.8c7.5-6.3,14.9-12.6,22.4-18.8c15.5-13,31.1-25.9,46.7-38.8c0.4-0.4,0.7-0.9,1.4-0.9l0.1,0.1
		c-0.6,4.5-1.9,8.8-2.8,13.3c-0.1,0.7-0.8,1-1.3,1.4c-22.1,14.7-44.1,29.4-66.2,44.2C86.3,166,86.2,165.9,86.1,165.8z"/>
	<path class="st3" d="M108.1,108.7c-1.4,2.4-2.7,4.3-3.9,6.4c-0.4,0.7-1,1-1.8,0.9c-9-0.3-18-0.5-27-0.7c-0.9,0-1.3-0.4-1.6-1.2
		c-0.7-1.8-1.4-3.5-2.2-5.4C83.8,108.7,95.7,108.7,108.1,108.7z"/>
	<path class="st2" d="M86.4,166.1c-0.3,0.2-0.7,0.4-1,0c0.2-0.1,0.5-0.2,0.7-0.3C86.2,165.9,86.3,166,86.4,166.1z"/>
	<path class="st1" d="M130.1,48.1c0.1,0,0.3,0,0.4,0c-0.1,0.1-0.1,0.1-0.2,0.2C130.3,48.2,130.2,48.1,130.1,48.1
		C130.1,48,130.1,48.1,130.1,48.1z"/>
	<path class="st2" d="M156.6,107.2c0.1-0.1,0.1-0.2,0.2-0.2c0,0,0.1,0.1,0.1,0.1C156.8,107.1,156.8,107.2,156.6,107.2L156.6,107.2z"
		/>
</g>
<text transform="matrix(1 0 0 1 445.8203 477.7181)"><tspan x="0" y="0" style="font-family:'BankGothicBT-Medium'; font-size:12px;">JOLT Logo Drafting V.1</tspan><tspan x="0" y="14.4" style="font-family:'BankGothicBT-Medium'; font-size:12px;">All Rights Reserved</tspan><tspan x="0" y="28.8" style="font-family:'BankGothicBT-Medium'; font-size:12px;">Designer: Jay Woloshin</tspan></text>
</svg>
